<svg xmlns="http://www.w3.org/2000/svg" xmlns:xlink="http://www.w3.org/1999/xlink" width="22.261" height="22.261" viewBox="0 0 22.261 22.261">
  <defs>
    <clipPath id="clip-path">
      <path id="Trazado_979" data-name="Trazado 979" d="M21.285,2.119a4.17,4.17,0,0,1-4.167,4.167H7.143A4.171,4.171,0,0,1,2.975,2.119V-7.856a4.172,4.172,0,0,1,4.168-4.168H17.12a4.172,4.172,0,0,1,4.168,4.168V2.119ZM17.118-14H7.143A6.151,6.151,0,0,0,1-7.859V2.119A6.15,6.15,0,0,0,7.143,8.261H17.12a6.149,6.149,0,0,0,6.142-6.143V-7.856A6.15,6.15,0,0,0,17.118-14Z" transform="translate(-1 14)" fill="none" clip-rule="evenodd"/>
    </clipPath>
    <clipPath id="clip-path-2">
      <path id="Trazado_981" data-name="Trazado 981" d="M10.065-1.287A3.653,3.653,0,0,1,6.417-4.935a3.654,3.654,0,0,1,3.649-3.649,3.651,3.651,0,0,1,3.647,3.649,3.651,3.651,0,0,1-3.647,3.648m0-9.213A5.572,5.572,0,0,0,4.5-4.933,5.571,5.571,0,0,0,10.065.631a5.571,5.571,0,0,0,5.565-5.564A5.572,5.572,0,0,0,10.065-10.5" transform="translate(-4.5 10.5)" fill="none" clip-rule="evenodd"/>
    </clipPath>
    <clipPath id="clip-path-3">
      <path id="Trazado_983" data-name="Trazado 983" d="M11.768-11.9a1.684,1.684,0,0,0-1.18.488,1.678,1.678,0,0,0-.488,1.181,1.686,1.686,0,0,0,.488,1.181,1.692,1.692,0,0,0,1.18.489,1.7,1.7,0,0,0,1.185-.489,1.679,1.679,0,0,0,.486-1.181,1.676,1.676,0,0,0-.486-1.181,1.684,1.684,0,0,0-1.185-.488" transform="translate(-10.1 11.9)" fill="none" clip-rule="evenodd"/>
    </clipPath>
  </defs>
  <g id="Grupo_5180" data-name="Grupo 5180" transform="translate(-498.5 -473.75)">
    <g id="Grupo_5179" data-name="Grupo 5179" transform="translate(-730.238 -18335.656)">
      <g id="Grupo_3950" data-name="Grupo 3950" transform="translate(1228.739 18809.406)" clip-path="url(#clip-path)">
        <path id="Trazado_978" data-name="Trazado 978" d="M0-15H25.441V10.441H0Z" transform="translate(-1.59 13.41)" fill="#2e2e2e"/>
      </g>
      <g id="Grupo_3951" data-name="Grupo 3951" transform="translate(1234.304 18814.971)" clip-path="url(#clip-path-2)">
        <path id="Trazado_980" data-name="Trazado 980" d="M3.5-11.5H17.811V2.811H3.5Z" transform="translate(-5.09 9.91)" fill="#2e2e2e"/>
      </g>
      <g id="Grupo_3952" data-name="Grupo 3952" transform="translate(1243.209 18812.744)" clip-path="url(#clip-path-3)">
        <path id="Trazado_982" data-name="Trazado 982" d="M9.1-12.9h6.519v6.519H9.1Z" transform="translate(-10.69 11.31)" fill="#2e2e2e"/>
      </g>
    </g>
  </g>
</svg>
