<?xml version="1.0" encoding="utf-8"?>
<!-- Designed by Vexels.com - 2021 All Rights Reserved - https://vexels.com/terms-and-conditions/  -->
<svg version="1.1" id="Layer_1" xmlns="http://www.w3.org/2000/svg" xmlns:xlink="http://www.w3.org/1999/xlink" x="0px" y="0px"
	 viewBox="0 0 1200 1200" enable-background="new 0 0 1200 1200" xml:space="preserve">
<g>
	<path fill="#E7A73D" d="M1091.814,365.792c7.33,19.978,1.833,79.914-29.32,102.498l-19.241,40.825
		c0,0-29.734,327.767-181.419,392.62l-24.739,8.976c0,0,19.547,42.852-20.768,70.648c0,0,16.492,86.863-80.631,83.967
		c0,0-25.714,38.999-135.694,37.676c-109.98,1.322-135.694-37.676-135.694-37.676c-97.123,2.895-80.631-83.967-80.631-83.967
		c-40.315-27.796-20.768-70.648-20.768-70.648l-24.74-8.976c-151.685-64.853-181.419-392.62-181.419-392.62l-19.242-40.825
		c-31.153-22.584-36.65-82.52-29.32-102.498s-84.907-103.077-50.45-202.68c10.153-29.349,34.551-49.53,65.313-58.437
		c73.461-21.27,153.403,2.121,198.04,62.06c3.102,4.164,30.335,45.631,35.402,43.573C356.51,210.3,490.441,154.886,600,162.813
		c109.559-7.927,243.49,47.487,243.508,47.494c5.067,2.059,32.301-39.409,35.402-43.573c44.638-59.938,124.579-83.33,198.041-62.06
		c30.762,8.907,55.16,29.088,65.313,58.437C1176.72,262.715,1084.483,345.814,1091.814,365.792z"/>
	<path fill="#C98428" d="M800.128,895.513c9.841,20.867,11.179,45.487-20.453,62.682c-18.784-5.497-51.995-22.101-51.995-22.101
		s14.613-1.453,42.625-4.358C791.614,929.526,802.363,909.628,800.128,895.513z M794.101,884.639
		c0.002,0.002,0.004,0.003,0.006,0.005c-0.001-0.001-0.001-0.003-0.002-0.004L794.101,884.639z M725.71,988.992
		c-21.788-5.447-78.367-12.872-79.165-21.788c-0.797-8.917,18.26-30.141,18.26-30.141c32.06,3.631,65.989-23.967,65.989-23.967
		c15.978-8.715,9.442-40.672,6.569-54.543c-0.01-0.049-0.03-0.112-0.041-0.163c2.458,14.601-5.958,31.899-21.073,32.922
		c-34.818,35.903-50.7,23.163-50.7,23.163c19.547-5.791,18.631-22.295,18.631-22.295c13.744-2.896,14.813-20.413,14.813-20.413
		c-5.497,7.818-5.039,8.252-28.404,8.252c-23.365,0-20.158,29.533-17.409,39.957c2.749,10.423-25.909,25.19-25.909,25.19
		c0.194-3.383-9.169,42.823,8.857,43.142c11.656,0.206,85.06,41.839,109.34,33.587c24.281-8.252,38.33-45.457,34.208-63.699
		C780.983,975.698,747.498,994.439,725.71,988.992z M616.381,1023.943c7.649,3.573,16.199,6.314,21.849,4.305
		c12.409-4.412,43.016,18.199,45.226,18.199c2.21,0-45.226,9.927-55.153,12.408c-7.968,1.992-21.735-0.446-26.877-1.489
		c-0.584-0.119-1.087-0.224-1.426-0.298c-0.763,0.166-2.22,0.469-4.087,0.806c-6.269,1.135-17.379,2.689-24.217,0.98
		c-9.927-2.482-57.363-12.408-55.153-12.408c2.21,0,32.817-22.611,45.226-18.199c5.619,1.998,14.105-0.701,21.722-4.245
		c-9.692-0.121-21.736-1.808-32.073-3.585c-19.075,6.784-51.76,27.68-51.76,27.68s50.165,19.544,69.178,18.893
		c9.805-0.336,18.776-0.325,25.198-0.235c2.355,0.033,4.391,0.075,5.966,0.115c0.965-0.025,2.147-0.05,3.418-0.074
		c6.458-0.121,16.549-0.19,27.746,0.194c19.012,0.652,69.178-18.893,69.178-18.893s-33.681-21.532-52.615-27.977
		C637.864,1021.857,626.168,1023.584,616.381,1023.943z M1002.488,525.843c-1.654,20.405-16.578,103.613-16.578,103.613
		l-10.363-20.895l-0.577-1.327c-1.721,4.271-3.605,8.458-5.669,12.537c1.68,0.9,9.119,21.166,14.662,36.824
		c14.675-40.87,21.285-91.89,25.025-124.204l-0.377,0.864c9.063-49.331-30.336-129.245-30.336-129.245s6.933,26.649,10.586,63.701
		C996.164,490.262,1003.323,515.553,1002.488,525.843z M936.99,693.94c1.442,6.517-6.225,10.547-13.031,11.156
		c-6.939,5.442-14.339,10.426-22.052,14.478c0.123,1.994-0.047,4.026-0.267,5.953c-0.75,6.608-3.757,8.688-9.072,12.478
		c-1.726,1.23-3.269,2.982-3.313,5.028c-5.092,0.828-10.45,0.116-15.105-2.007c-1.324-0.604-2.631-1.35-3.49-2.48
		c-0.985-1.295-1.275-2.946-1.404-4.538c-0.118-1.447-0.075-2.934,0.151-4.376c-20.513,1.565-41.696-6.664-61.264-32.155
		c-37.074-48.295,106.841-23.013,102.348-182.799c-0.629,15.935-16.053,29.738-16.053,29.738
		c-3.706,3.303-5.665,13.383-7.573,17.927c-2.642,6.292-5.217,12.666-8.332,18.765c-5.347,10.466-10.695,21.091-19.837,29.17
		c-22.376,19.774-50.258,8.294-75.436,21.147c-60.588,30.928,12.144,10.725-13.512,57.498
		c-13.547,24.696,38.707,143.74,54.371,178.225c6.404,1.141,13.712,0.867,22.747-2.184
		c44.136-14.904,129.596-114.899,128.143-184.782c-0.575-4.447-1.932-14.731-3.235-25.576
		C965.675,662.935,953.212,678.869,936.99,693.94z M749.788,808.936c-8.161-21.692-16.515-43.885-16.515-43.885
		s12.293,32.218,44.349,81.438c-2.399-0.8-7.97-0.743-11.424,1.322c1.951,4.612,3.093,7.308,3.093,7.308
		c8.154-2.433,14.816-2.315,20.773-0.949c-13.571-18.701-70.418-103.027-49.025-176.251c6.612-22.632-1.832-44.011-3.665-75.025
		c-1.232-20.846,11.69-43.075,30.861-58.758c-21.469,12.931-55.363,22.631-55.863,73.364c-0.583,59.071-4.259,89.09,0,101.195
		C714.89,725.85,734.319,772.216,749.788,808.936z M910.394,511.142L910.394,511.142
		C910.394,511.142,910.394,511.143,910.394,511.142L910.394,511.142z M1077.612,142.555c-0.93-0.601-1.92-1.14-2.912-1.677
		c-5.793,5.025-12.051,14.999-19.24,28.276c0.003,0,0.006-0.001,0.01-0.001c0,0,8.227,11.582,8.094,40.681
		c-0.094,20.528-25.197,70.793-55.434,88.166c-30.236,17.373-29.854,76.061-29.854,76.061c0.726,5.582,2.723,19.562,0,29.951
		l48.955,59.135c7.03-17.776,15.297-37.206,21.825-49.291c12.827-23.742,9.163-79.914,9.163-79.914l5.192-6.37
		C1132.587,234.629,1116.553,167.745,1077.612,142.555z M427.137,931.736c-9.156-0.95-16.351-5.175-21.418-10.795
		c3.349,6.776,10.227,16.864,21.625,17.001c17.165,0.207,29.091,1.241,29.091,1.241c-17.096,3.861-31.987,14.339-31.987,14.339
		s-22.704-7.383-21.36-35.885c-3.399-4.858-5.412-10.379-5.933-15.632c-6.974,19.113-5.253,40.282,22.28,55.684
		c19.013-5.94,50.326-21.594,50.326-21.594S455.149,934.642,427.137,931.736z M572.73,945.166c0,0-28.658-14.767-25.91-25.19
		c2.749-10.424,5.956-39.957-17.409-39.957c-23.364,0-22.907-0.434-28.404-8.252c0,0,1.069,17.517,14.813,20.413
		c0,0-0.916,16.504,18.631,22.295c0,0-15.882,12.74-50.7-23.163c-17.103-1.158-25.655-23.164-19.546-38.509
		c6.108-15.346,25.596-49.285,25.596-49.285l2.808,42.626c0,0,36.345,1.158,47.035,9.555c9.866,7.75,52.83,0.709,60.357,3.219
		c0.569-0.19,1.361-0.319,2.304-0.41c0.379-0.037,0.784-0.067,1.216-0.09c12.753-0.68,48.015,4.21,56.836-2.719
		c10.69-8.397,47.035-9.555,47.035-9.555l2.808-42.626c0,0,2.337,4.07,5.644,10.025c-8.833-16.195-17.006-30.275-17.006-30.275
		s-15.615,36.138-31.593,35.412c-15.978-0.726-42.729,24.27-64.881,24.27c-22.152,0-56.187-24.996-72.166-24.27
		c-15.978,0.726-31.593-35.412-31.593-35.412s-35.653,61.414-38.526,75.285c-2.872,13.872-9.409,45.828,6.569,54.543
		c0,0,33.929,27.599,65.989,23.967c0,0,19.057,21.224,18.26,30.141c-0.797,8.917-57.376,16.341-79.165,21.788
		c-14.633,3.658-34.527-3.599-45.629-14.057c2.341,3.808,20.047,30.791,48.255,24.637c19.86-6.755,39.045-11.652,53.462-14.895
		l-0.002-0.001c0,0,16.86-7.749,30.232-9.535c0.176-0.219,0.36-0.435,0.509-0.661c3.624-5.515,9.208-24.541,9.208-24.541
		s4.136,29.987-3.309,30.608c-2.84,0.237-5.656,0.226-8.446,0.3c-9.196,0.63-21.24,6.107-21.843,6.384
		c-21.863,10.556-52.188,27.778-66.153,26.956c-18.681-1.099-42.546-21.082-42.178-39.5c-2.653-2.543-4.786-5.267-6.194-8.069
		c0.598,19.451,13.923,48.154,34.888,55.279c24.281,8.252,97.685-33.381,109.34-33.587
		C581.899,987.99,572.536,941.783,572.73,945.166z M256.129,310.66c9.613-8.886,18.667-15.083,23.79-18.857
		C273.24,296.11,264.675,302.381,256.129,310.66z M462.627,602.893c-1.833,31.015-10.278,52.393-3.665,75.025
		c21.393,73.224-35.454,157.55-49.025,176.251c5.385-1.235,11.357-1.43,18.474,0.337c0.475-1.122,1.6-3.781,3.232-7.639
		c-3.299-1.092-7.319-1.028-9.264-0.379c16.94-26.011,28.358-47.268,35.362-61.537c12.803-30.498,25.34-60.606,27.329-66.257
		c4.259-12.105,0.582-42.124,0-101.195c-0.447-45.285-27.502-57.872-48.579-69.25C453.02,563.568,463.754,583.811,462.627,602.893z
		 M430.252,688.921c-25.656-46.773,47.076-26.57-13.512-57.498c-25.177-12.852-53.059-1.373-75.436-21.147
		c-9.142-8.079-14.49-18.704-19.837-29.17c-3.115-6.099-5.69-12.473-8.332-18.765c-1.909-4.544-3.867-14.624-7.573-17.927
		c0,0-16.241-14.563-16.041-31.039c-1.559-1.402-2.473-2.233-2.473-2.233c-6.751,163.733,139.6,137.682,102.252,186.334
		c-18.751,24.426-38.984,32.992-58.69,32.29c0.206,1.4,0.25,2.839,0.136,4.241c-0.13,1.592-0.419,3.243-1.405,4.538
		c-0.859,1.13-2.166,1.876-3.49,2.48c-4.656,2.123-10.014,2.836-15.105,2.007c-0.044-2.046-1.587-3.798-3.312-5.028
		c-5.316-3.791-8.322-5.87-9.073-12.478c-0.172-1.513-0.311-3.091-0.307-4.664c-8.884-4.387-17.38-10.065-25.269-16.313
		c-4.945-1.207-9.509-4.125-9.923-8.407c-15.602-14.08-27.989-29.287-34.994-38.578c-1.187,9.719-2.354,18.578-2.877,22.618
		c-1.453,69.883,84.007,169.878,128.143,184.781c9.035,3.051,16.344,3.325,22.747,2.184
		C391.545,832.661,443.798,713.617,430.252,688.921z M228.141,619.772c-1.596-3.154-3.073-6.377-4.463-9.648l-9.588,19.332
		c0,0-14.924-83.209-16.578-103.613c-0.698-8.61,4.205-27.727,10.102-46.951c2.063-27.585,6.27-50.738,8.999-63.699
		c-10.343,23.695-32.221,79.977-25.224,118.063l-0.377-0.863c3.74,32.314,10.35,83.334,25.025,124.204
		c3.087-8.722,6.761-18.865,9.703-26.303L228.141,619.772z M266.138,290.851c6.283-1.469,12.46-2.934,17.265-4.078
		C280.973,285.345,274.284,287.493,266.138,290.851z M219.167,404.011c-1.731-14.107-0.646-26.751,2.238-38.062
		c-1.126-16.709-6.247-54.571-29.534-67.951c-30.236-17.372-55.339-67.638-55.434-88.166c-0.1-21.757,4.473-33.716,6.788-38.368
		c-7.3-13.651-13.645-24.098-19.494-29.684c-0.442,0.263-0.914,0.496-1.343,0.773c-38.941,25.19-54.975,92.075,14.202,185.018
		l5.192,6.37c0,0-3.665,56.171,9.163,79.914c6.529,12.084,14.796,31.515,21.826,49.291l45.344-54.773
		C218.769,405.544,219.167,404.011,219.167,404.011z"/>
	<path fill="#362414" d="M242.458,567.121l-18.005,41.441l-0.775,1.562l-9.588,19.332c0,0-14.924-83.209-16.578-103.613
		c-0.698-8.61,4.205-27.727,10.102-46.951c8.078-26.334,18.024-52.869,18.024-52.869s-13.788,71.693-14.104,100.371
		c-0.183,16.583,4.164,41.448,7.865,59.484C226.226,584.396,242.458,567.121,242.458,567.121z M871.451,724.623
		c-1.164,1.454-1.759,3.194-2.044,5.008c-0.226,1.442-0.269,2.929-0.151,4.376c0.129,1.592,0.418,3.243,1.404,4.538
		c0.859,1.13,2.166,1.876,3.49,2.48c4.655,2.123,10.013,2.836,15.105,2.007c0.044-2.046,1.587-3.798,3.313-5.028
		c5.316-3.791,8.322-5.87,9.072-12.478c0.219-1.928,0.389-3.96,0.267-5.953c-0.104-1.696-0.418-3.365-1.125-4.914
		c-2.229-4.882-14.961-16.704-19.169-7.375c-1.709,3.788,2.162,8.311,0.495,12.116C878.161,720.379,873.916,721.542,871.451,724.623
		z M1091.814,365.792c7.33,19.978,1.833,79.914-29.32,102.498l-19.241,40.825c0,0-29.734,327.767-181.419,392.62l-24.739,8.976
		c0,0,19.547,42.852-20.768,70.648c0,0,16.492,86.863-80.631,83.967c0,0-25.714,38.999-135.694,37.676
		c-109.98,1.322-135.694-37.676-135.694-37.676c-97.123,2.895-80.631-83.967-80.631-83.967
		c-40.315-27.796-20.768-70.648-20.768-70.648l-24.74-8.976c-151.685-64.853-181.419-392.62-181.419-392.62l-19.242-40.825
		c-31.153-22.584-36.65-82.52-29.32-102.498s-84.907-103.077-50.45-202.68c10.153-29.349,34.551-49.53,65.313-58.437
		c73.461-21.27,153.403,2.121,198.04,62.06c3.102,4.164,30.335,45.631,35.402,43.573C356.51,210.3,490.441,154.886,600,162.813
		c109.559-7.927,243.49,47.487,243.508,47.494c5.067,2.059,32.301-39.409,35.402-43.573c44.638-59.938,124.579-83.33,198.041-62.06
		c30.762,8.907,55.16,29.088,65.313,58.437C1176.72,262.715,1084.483,345.814,1091.814,365.792z M700.342,1048.099
		c0,0-33.681-21.532-52.615-27.977c-3.796-1.292-7.014-1.992-9.233-1.774c-11.648,1.143-33.325-12.233-38.494-15.549
		c-5.169,3.316-26.846,16.691-38.494,15.549c-2.384-0.234-5.916,0.586-10.087,2.07c-19.075,6.784-51.76,27.68-51.76,27.68
		s50.165,19.544,69.178,18.893c9.805-0.336,18.776-0.325,25.198-0.235c2.355,0.033,4.391,0.075,5.966,0.115
		c0.965-0.025,2.147-0.05,3.418-0.074c6.458-0.121,16.549-0.19,27.746,0.194C650.177,1067.643,700.342,1048.099,700.342,1048.099z
		 M1077.612,142.555c-0.93-0.601-1.92-1.14-2.912-1.677c-40.568-21.935-131.932,9.548-156.975,29.473
		c-25.655,20.413-49.02,88.166-49.02,88.166l-24.281-11.727c-113.601-48.518-212.742-47.265-240.541-45.734v0.565
		c0,0-1.382-0.142-3.883-0.321c-2.5,0.179-3.883,0.321-3.883,0.321v-0.565c-27.799-1.531-126.94-2.784-240.541,45.734
		l-24.281,11.727c0,0-23.364-67.753-49.019-88.166c-25.373-20.188-118.82-52.232-158.545-28.569
		c-0.442,0.263-0.914,0.496-1.343,0.773c-38.941,25.19-54.975,92.075,14.202,185.018l5.192,6.37c0,0-3.665,56.171,9.163,79.914
		c6.529,12.084,14.796,31.515,21.826,49.291l45.344-54.773l3.611-4.362c0,0-2.059,4.186-5.113,11.182
		c-10.343,23.695-32.221,79.977-25.224,118.063l-0.377-0.863c3.74,32.314,10.35,83.334,25.025,124.204
		c3.087-8.722,6.761-18.865,9.703-26.303c2.339-5.915,4.215-10.122,4.959-10.521c1.592-0.853-0.651,19.926-2.832,37.791
		c-1.187,9.719-2.354,18.578-2.877,22.618c-1.453,69.883,84.007,169.878,128.143,184.781c9.035,3.051,16.344,3.325,22.747,2.184
		c15.664-34.485,67.918-153.529,54.372-178.225c-25.656-46.773,47.076-26.57-13.512-57.498
		c-25.177-12.852-53.059-1.373-75.436-21.147c-9.142-8.079-14.49-18.704-19.837-29.17c-3.115-6.099-5.69-12.473-8.332-18.765
		c-1.909-4.544-3.867-14.624-7.573-17.927c0,0-16.241-14.563-16.041-31.039c0.009-0.743,0.006-1.484,0.085-2.233
		c37.336,24.322,75.744,4.633,110.562,15.635c13.395,4.233,25.989,11.892,36.324,21.471c16.529,15.32,27.263,35.562,26.135,54.645
		c-1.833,31.015-10.278,52.393-3.665,75.025c21.393,73.224-35.454,157.55-49.025,176.251c5.385-1.235,11.357-1.43,18.474,0.337
		c0.757,0.188,1.515,0.378,2.299,0.612c0,0-24.343,21.646-33.554,46.886c-6.974,19.113-5.253,40.282,22.28,55.684
		c0.3,0.168,0.583,0.34,0.889,0.507c-0.563,2.491-0.776,5.344-0.681,8.421c0.598,19.451,13.923,48.154,34.888,55.279
		c24.281,8.252,97.685-33.381,109.34-33.587c18.026-0.318,8.663-46.525,8.857-43.142c0,0-28.658-14.767-25.91-25.19
		c2.749-10.424,5.956-39.957-17.409-39.957c-23.364,0-22.907-0.434-28.404-8.252c0,0,1.069,17.517,14.813,20.413
		c0,0-0.916,16.504,18.631,22.295c0,0-15.882,12.74-50.7-23.163c-17.103-1.158-25.655-23.164-19.546-38.509
		c6.108-15.346,25.596-49.285,25.596-49.285l2.808,42.626c0,0,36.345,1.158,47.035,9.555c9.866,7.75,52.83,0.709,60.357,3.219
		c0.569-0.19,1.361-0.319,2.304-0.41c0.379-0.037,0.784-0.067,1.216-0.09c12.753-0.68,48.015,4.21,56.836-2.719
		c10.69-8.397,47.035-9.555,47.035-9.555l2.808-42.626c0,0,2.337,4.07,5.644,10.025c6.246,11.247,15.958,29.227,19.952,39.261
		c0.71,1.785,1.203,3.665,1.526,5.587c2.458,14.601-5.958,31.899-21.073,32.922c-34.818,35.903-50.7,23.163-50.7,23.163
		c19.547-5.791,18.631-22.295,18.631-22.295c13.744-2.896,14.813-20.413,14.813-20.413c-5.497,7.818-5.039,8.252-28.404,8.252
		c-23.365,0-20.158,29.533-17.409,39.957c2.749,10.423-25.909,25.19-25.909,25.19c0.194-3.383-9.169,42.823,8.857,43.142
		c11.656,0.206,85.06,41.839,109.34,33.587c24.281-8.252,38.33-45.457,34.208-63.699c0,0,0-0.001,0-0.001
		c31.632-17.196,30.294-41.815,20.453-62.682c-1.777-3.769-3.833-7.412-6.021-10.869c-0.001-0.001-0.001-0.003-0.002-0.004
		c-10.789-17.047-24.814-29.521-24.814-29.521c8.154-2.433,14.816-2.315,20.773-0.949c-13.571-18.701-70.418-103.027-49.025-176.251
		c6.612-22.632-1.832-44.011-3.665-75.025c-1.232-20.846,11.69-43.075,30.861-58.758c2.936-2.402,6.032-4.629,9.232-6.696
		c0.05-0.046,0.106-0.088,0.155-0.135c0,0-0.007,0.032-0.008,0.04c6.951-4.473,14.443-8.109,22.22-10.567
		c34.818-11.003,73.226,8.686,110.562-15.635c0,0,0,0,0,0v0c0.125,1.187,0.143,2.365,0.096,3.534
		c-0.629,15.935-16.053,29.738-16.053,29.738c-3.706,3.303-5.665,13.383-7.573,17.927c-2.642,6.292-5.217,12.666-8.332,18.765
		c-5.347,10.466-10.695,21.091-19.837,29.17c-22.376,19.774-50.258,8.294-75.436,21.147c-60.588,30.928,12.144,10.725-13.512,57.498
		c-13.547,24.696,38.707,143.74,54.371,178.225c6.404,1.141,13.712,0.867,22.747-2.184
		c44.136-14.904,129.596-114.899,128.143-184.782c-0.575-4.447-1.932-14.731-3.235-25.576c-2.057-17.119-3.979-35.639-2.474-34.832
		c1.68,0.9,9.119,21.166,14.662,36.824c14.675-40.87,21.285-91.89,25.025-124.204l-0.377,0.864
		c9.063-49.331-30.336-129.245-30.336-129.245l48.955,59.135c7.03-17.776,15.297-37.206,21.825-49.291
		c12.827-23.742,9.163-79.914,9.163-79.914l5.192-6.37C1132.587,234.629,1116.553,167.745,1077.612,142.555z M1008.129,297.999
		c30.236-17.372,55.339-67.638,55.434-88.166c0.134-29.099-8.094-40.681-8.094-40.681c-0.003,0-0.006,0.001-0.01,0.001
		c-17.097,0.603-25.04,64.857-50.69,69.489c-25.655,4.633-17.714,27.796-17.714,27.796l-34.207-2.895
		c0,0,12.828,33.587,9.774,33.587c-1.768,0-19.957-4.199-34.968-7.737c-4.714-1.111-9.103-2.154-12.581-2.984
		c-4.578-1.092-7.578-1.814-7.578-1.814s2.158,1.004,5.723,3.032c15.495,8.816,57.609,37.003,65.057,86.433
		C978.275,374.06,977.892,315.371,1008.129,297.999z M988.465,526.394c0.183,16.583-4.164,41.448-7.865,59.484
		c-6.826-1.483-23.059-18.757-23.059-18.757l17.429,40.114l0.577,1.327l10.363,20.895c0,0,14.924-83.209,16.578-103.613
		c0.834-10.29-6.324-35.581-13.628-58.131c-7.18-22.169-14.498-41.689-14.498-41.689S988.149,497.717,988.465,526.394z
		 M267.091,683.548c-1.686,3.016-2.779,6.293-3.864,9.549c-0.36,1.081-0.458,2.094-0.366,3.045c0.415,4.281,4.978,7.2,9.923,8.407
		c6.65,1.623,13.965,0.153,12.725-5.276c-0.187-0.817-0.705-1.526-1.213-2.211c-1.577-2.13-3.155-4.259-4.733-6.389
		c-1.52-2.05-3.212-4.204-5.233-5.789c-1.559-1.222-3.315-2.107-5.338-2.344c-0.367-0.043-0.758-0.06-1.089,0.096
		C267.521,682.816,267.29,683.191,267.091,683.548z M920.437,690.673c-1.578,2.13-3.156,4.259-4.733,6.389
		c-0.508,0.685-1.026,1.393-1.213,2.211c-1.038,4.546,3.923,6.319,9.468,5.823c6.806-0.609,14.473-4.639,13.031-11.156
		c-0.062-0.278-0.122-0.555-0.217-0.843c-1.084-3.256-2.177-6.532-3.864-9.549c-0.2-0.358-0.431-0.732-0.813-0.913
		c-0.331-0.156-0.722-0.14-1.089-0.096c-2.023,0.238-3.778,1.122-5.337,2.344C923.649,686.469,921.956,688.622,920.437,690.673z
		 M298.053,720.862c-0.004,1.573,0.135,3.151,0.307,4.664c0.75,6.608,3.757,8.688,9.073,12.478c1.725,1.23,3.269,2.982,3.312,5.028
		c5.092,0.828,10.45,0.116,15.105-2.007c1.324-0.604,2.63-1.35,3.49-2.48c0.986-1.295,1.275-2.946,1.405-4.538
		c0.113-1.402,0.07-2.841-0.136-4.241c-0.274-1.863-0.867-3.653-2.059-5.143c-2.464-3.081-6.711-4.244-10.657-5.223
		c-1.667-3.804,2.204-8.328,0.495-12.116c-4.208-9.329-16.941,2.493-19.169,7.375C298.332,716.6,298.057,718.727,298.053,720.862z
		 M617.467,369.627c-0.825-1.108-2.127-1.805-3.441-2.339c-4.457-1.811-9.426-1.909-14.026-0.685
		c-4.6-1.223-9.569-1.125-14.026,0.685c-1.315,0.534-2.617,1.232-3.441,2.339c-0.848,1.139-1.092,2.572-1.311,3.95
		c-0.98,6.187-1.884,12.483-0.959,18.678c1.044,6.981,4.348,13.446,6.673,20.144c0.026,0.073,0.045,0.148,0.07,0.221
		c-0.324,8.389-0.648,16.778-0.972,25.168c-0.859,22.226,6.078,47.1,11.488,69.886c0.531,4.265,1.204,8.485,2.117,12.629
		c0.114-0.554,0.242-1.121,0.36-1.679c0.118,0.558,0.246,1.125,0.36,1.679c0.913-4.144,1.586-8.365,2.117-12.629
		c5.41-22.786,12.346-47.661,11.488-69.886c-0.324-8.389-0.648-16.778-0.972-25.167c0.026-0.074,0.045-0.148,0.071-0.222
		c2.325-6.698,5.629-13.163,6.673-20.144c0.926-6.195,0.022-12.491-0.958-18.678C618.559,372.2,618.314,370.766,617.467,369.627z
		 M957.542,169.152c0,0-52.116,25.613-80.792,94.549l16.236,7.905C892.986,271.606,916.456,192.437,957.542,169.152z
		 M591.832,275.596c0.118,0.117,0.202,0.259,0.334,0.365c1.489,1.187,3.594,1.332,5.539,1.297c0.767-0.014,1.531-0.082,2.295-0.134
		c0.765,0.052,1.528,0.12,2.295,0.134c1.944,0.035,4.05-0.11,5.539-1.297c0.133-0.106,0.216-0.248,0.334-0.365
		c9.835-3.992,9.478-16.702,0.783-23.034c-2.668-1.943-5.841-2.742-8.952-2.259c-3.112-0.482-6.283,0.316-8.952,2.259
		C582.354,258.894,581.997,271.604,591.832,275.596z M516.411,314.333c-4.288,3.253-9.731,6.487-6.986,12.818
		c3.311,7.636,15.91,5.1,21.081,0.903c2.704,5.6,5.407,11.2,8.111,16.8c1.678,3.476,4.638,7.596,8.561,6.716
		c1.33-0.298,2.433-1.159,3.426-2.049c5.416-4.852,9.103-11.408,10.335-18.374c0.355-2.005,0.435-4.282-0.954-5.829
		c-0.801-0.892-1.981-1.401-2.866-2.219c-3.418-3.155-1-8.478,0.478-12.778c1.922-5.59,1.797-11.792-0.35-17.308
		c-0.438-1.125-1.02-2.293-2.107-2.907c-1.107-0.626-2.495-0.542-3.771-0.37c-7.423,0.999-14.247,4.347-19.919,8.919
		C525.677,303.306,522.267,309.889,516.411,314.333z M549.588,242.447c0.884,1.042,1.603,2.321,2.891,2.868
		c0.687,0.292,1.461,0.336,2.213,0.316c3.379-0.087,6.705-1.413,9.132-3.642c4.741-4.352,5.528-11.182,6.035-17.42
		c0.123-1.508,0.209-3.152-0.7-4.395c-0.985-1.348-2.834-1.812-4.535-2.105c-9.716-1.677-16.724-0.987-22.191,7.539
		c-1.923,2.999-2.421,7.008-0.477,9.996C543.802,238.443,547.384,239.848,549.588,242.447z M470.604,318.331
		c3.481-3.593,2.507-9.508-0.362-13.558c-6.146-8.677-16.823-17.78-27.806-20.038c-8.444-1.737-21.731,13.138-14.688,19.933
		c1.006,0.971,2.368,1.518,3.693,2.042c4.109,1.625,8.218,3.249,12.328,4.874c0.883,6.868-10.678,9.659-11.997,16.463
		c-1.034,5.335,4.781,9.838,5.147,15.251c0.326,4.827-3.696,8.923-4.754,13.655c-0.205,0.917-0.295,1.878-0.048,2.785
		c0.442,1.629,1.891,2.836,3.408,3.709c7.465,4.298,17.864,2.347,23.999-3.547c6.134-5.894,8.194-14.931,6.523-23.058
		c-1.046-5.088-3.213-10.997,0.316-14.957C467.582,320.518,469.325,319.651,470.604,318.331z M500.757,228.404
		c-10.558-1.68-19.35-10.619-30.024-9.858c-10.012,0.714-16.847,9.509-25.143,14.872c-9.201,5.949-20.58,7.741-31.416,10.18
		c-13.995,3.151-50.665,9.253-52.775,26.188c-2.513,20.165,28.482,22.205,14.005,45.673c-3.503,5.68-7.92,11.132-9.076,17.62
		c-1.156,6.488,2.608,14.42,9.509,15.12c10.852-10.112,18.147-23.597,20.478-37.852c1.339-8.186,1.1-16.644,3.617-24.578
		c2.517-7.933,8.776-15.622,17.443-16.683c2.199,3.669,7.854,4.099,11.894,2.325c4.038-1.773,7.039-5.092,10.476-7.773
		c11.878-9.266,28.275-10.573,43.126-14.37c5.253-1.343,10.596-3.148,14.471-6.769C501.218,238.879,503.216,233.005,500.757,228.404
		z M501.53,286.615c3.7,1.467,7.641,2.387,11.636,2.718c1.595,0.132,3.345,0.129,4.61-0.802c0.596-0.439,1.026-1.046,1.42-1.657
		c4.521-7.007,5.44-15.696,3.564-23.622c-1.052-4.44-6.733-12.991-12.064-7.827c-3.284,3.181-2.489,11.289-4.281,15.35
		C504.503,275.106,492.787,283.149,501.53,286.615z M644.861,290.105c-1.087,0.615-1.669,1.782-2.107,2.907
		c-2.147,5.516-2.272,11.718-0.35,17.308c1.478,4.3,3.896,9.623,0.478,12.778c-0.885,0.818-2.065,1.327-2.866,2.219
		c-1.389,1.548-1.309,3.825-0.954,5.829c1.233,6.967,4.919,13.522,10.335,18.374c0.993,0.89,2.096,1.75,3.426,2.049
		c3.924,0.88,6.883-3.24,8.561-6.716c2.703-5.6,5.407-11.2,8.111-16.8c5.171,4.197,17.771,6.733,21.081-0.903
		c2.745-6.331-2.698-9.564-6.986-12.818c-5.856-4.444-9.266-11.027-15.038-15.679c-5.672-4.573-12.496-7.921-19.919-8.919
		C647.355,289.563,645.968,289.479,644.861,290.105z M768.56,306.71c1.325-0.524,2.687-1.071,3.694-2.042
		c7.042-6.795-6.244-21.67-14.689-19.933c-10.983,2.259-21.66,11.361-27.806,20.038c-2.869,4.05-3.843,9.964-0.362,13.558
		c1.279,1.32,3.022,2.187,4.242,3.556c3.529,3.959,1.362,9.869,0.316,14.957c-1.67,8.127,0.389,17.164,6.523,23.058
		c6.135,5.894,16.534,7.845,23.999,3.547c1.517-0.873,2.966-2.08,3.409-3.709c0.246-0.907,0.156-1.869-0.049-2.785
		c-1.058-4.732-5.08-8.827-4.754-13.655c0.365-5.413,6.18-9.917,5.147-15.251c-1.319-6.804-12.88-9.596-11.997-16.463
		C760.342,309.96,764.452,308.335,768.56,306.71z M896.12,468.634c0,0-16.958,22.396-15.097,35.839l-56.252,11.788
		c8.893,0,29.987,3.723,43.016,2.068c13.029-1.654,40.948-10.961,40.121-11.374C907.081,506.541,891.364,489.46,896.12,468.634z
		 M769.447,481.698c-2.914-0.648-5.902-1.326-8.373-2.927c-2.847-1.846-4.722-4.733-6.421-7.578
		c-7.664-12.84-13.48-26.67-17.238-40.986c-7.272,28.66-16.492,58.601-13.701,87.959c0.213,2.233,0.428,4.541-0.315,6.669
		c-0.794,2.275-2.597,4.093-4.443,5.731c-4.994,4.43-10.866,8.349-13.798,14.206c-2.932,5.857-1.174,14.503,5.396,16.303
		c5.991,1.641,11.721-3.131,15.462-7.861c6.006-7.594,10.589-16.196,13.472-25.286c1.962-6.185,13.123-12.709,16.68-18.218
		c7.286-11.28,18.996-8.371,30.091-11.969c4.806-1.558,8.749-7.437,5.448-11.095C784.287,484.997,776.867,483.347,769.447,481.698z
		 M833.67,333.079c-1.155-6.487-5.573-11.94-9.076-17.62c-14.476-23.469,16.518-25.508,14.006-45.673
		c-2.11-16.934-38.78-23.037-52.775-26.188c-10.836-2.439-22.215-4.231-31.416-10.18c-8.295-5.363-15.13-14.158-25.142-14.872
		c-10.675-0.761-19.467,8.178-30.024,9.858c-2.459,4.601-0.461,10.475,3.414,14.096c3.874,3.621,9.217,5.426,14.47,6.769
		c14.851,3.797,31.249,5.104,43.126,14.37c3.437,2.681,6.438,5.999,10.477,7.773c4.039,1.774,9.695,1.344,11.894-2.325
		c8.666,1.061,14.926,8.749,17.443,16.683c2.516,7.933,2.277,16.391,3.617,24.578c2.331,14.255,9.627,27.74,20.478,37.852
		C831.063,347.499,834.826,339.567,833.67,333.079z M682.224,288.531c1.265,0.931,3.015,0.934,4.61,0.802
		c3.996-0.331,7.936-1.251,11.637-2.718c8.743-3.466-2.974-11.509-4.885-15.84c-1.792-4.061-0.998-12.169-4.281-15.35
		c-5.331-5.164-11.012,3.387-12.064,7.827c-1.877,7.926-0.957,16.615,3.564,23.622C681.197,287.485,681.627,288.092,682.224,288.531
		z M481.044,530.565c-1.846-1.638-3.649-3.456-4.443-5.731c-0.743-2.128-0.528-4.437-0.315-6.669
		c2.791-29.359-6.428-59.3-13.701-87.959c-3.757,14.317-9.574,28.146-17.238,40.986c-1.699,2.846-3.574,5.732-6.421,7.578
		c-2.47,1.602-5.459,2.28-8.373,2.927c-7.42,1.649-14.84,3.298-22.26,4.948c-3.302,3.659,0.642,9.537,5.447,11.095
		c11.095,3.597,22.806,0.689,30.091,11.969c3.558,5.508,14.719,12.032,16.68,18.218c2.883,9.09,7.467,17.692,13.472,25.286
		c3.741,4.731,9.471,9.503,15.463,7.861c6.569-1.8,8.327-10.446,5.396-16.303C491.91,538.914,486.038,534.995,481.044,530.565z
		 M636.177,241.99c2.427,2.228,5.753,3.555,9.132,3.642c0.752,0.02,1.526-0.025,2.213-0.316c1.288-0.547,2.007-1.825,2.891-2.868
		c2.204-2.599,5.786-4.004,7.632-6.842c1.944-2.988,1.446-6.997-0.477-9.996c-5.467-8.526-12.475-9.216-22.191-7.539
		c-1.701,0.293-3.549,0.758-4.535,2.105c-0.908,1.243-0.822,2.887-0.7,4.395C630.649,230.808,631.436,237.637,636.177,241.99z
		 M877.311,681.809c-1.084-3.256-2.177-6.532-3.864-9.548c-0.2-0.358-0.431-0.732-0.813-0.913c-0.331-0.156-0.722-0.14-1.089-0.096
		c-2.023,0.238-3.777,1.122-5.337,2.344c-2.022,1.585-3.714,3.739-5.233,5.789c-1.577,2.13-3.155,4.259-4.733,6.389
		c-0.508,0.685-1.026,1.393-1.214,2.211C852.662,698.348,881.471,694.306,877.311,681.809z M259.848,604.991
		c1.576-3.83,0.687-8.39,2.829-11.964c1.202-2.006,3.211-3.434,5.047-4.948c5.845-4.822,10.359-11.077,13.039-17.965
		c1.676-4.307,6.355-10.177,6-14.463c-0.574-6.908-2.313-13.729-5.133-20.122c-7.341,8.921-14.077,18.288-20.154,28.026
		c-5.174,8.291-9.889,16.876-15.931,24.622c-3.099,3.973-6.707,8.147-6.697,13.089c0.009,4.754,3.942,9.236,8.871,10.111
		C252.65,612.251,258.026,609.42,259.848,604.991z M344.971,687.985c-0.187-0.818-0.706-1.526-1.214-2.211
		c-1.577-2.13-3.155-4.259-4.733-6.389c-1.519-2.05-3.212-4.204-5.233-5.789c-1.559-1.222-3.314-2.106-5.337-2.344
		c-0.367-0.043-0.757-0.06-1.089,0.096c-0.382,0.181-0.613,0.555-0.813,0.913c-1.687,3.016-2.78,6.293-3.864,9.548
		C318.528,694.306,347.338,698.348,344.971,687.985z M303.88,468.634c4.756,20.827-10.961,37.907-11.788,38.321
		c-0.828,0.414,27.092,9.72,40.121,11.374c13.029,1.655,34.123-2.068,43.016-2.068l-56.252-11.788
		C320.839,491.03,303.88,468.634,303.88,468.634z M307.014,271.606l16.237-7.905c-28.677-68.936-80.793-94.549-80.793-94.549
		C283.544,192.437,307.014,271.606,307.014,271.606z M287.303,648.913c-3.214-4.154-0.922-12.945-10.327-10.524
		c-5.989,1.542-7.863,10.274-7.239,15.214c0.189,1.502,0.611,3.029,1.608,4.21c0.922,1.092,2.248,1.79,3.489,2.547
		c6.23,3.802,10.955,9.766,13.071,16.498c3.189,2.088,7.888,1.223,10.589-1.412c2.701-2.635,3.574-6.612,3.019-10.249
		c-0.556-3.637-2.377-6.991-4.467-10.085c-0.577-0.855-1.191-1.711-2.028-2.345C292.718,651.024,289.045,651.165,287.303,648.913z
		 M912.095,676.859c2.116-6.731,6.841-12.695,13.071-16.498c1.24-0.757,2.567-1.456,3.489-2.547c0.997-1.181,1.419-2.708,1.608-4.21
		c0.624-4.94-1.25-13.672-7.239-15.214c-9.405-2.422-7.112,6.37-10.327,10.524c-1.741,2.252-5.415,2.11-7.715,3.854
		c-0.837,0.634-1.45,1.49-2.028,2.345c-2.09,3.095-3.911,6.449-4.467,10.085c-0.555,3.636,0.318,7.614,3.019,10.249
		C904.207,678.082,908.906,678.947,912.095,676.859z M938.524,563.554c-6.077-9.738-12.813-19.105-20.154-28.026
		c-2.82,6.393-4.559,13.214-5.133,20.122c-0.355,4.286,4.324,10.156,6,14.463c2.681,6.888,7.194,13.144,13.04,17.965
		c1.836,1.514,3.845,2.942,5.047,4.948c2.142,3.574,1.253,8.134,2.829,11.964c1.822,4.429,7.198,7.26,12.128,6.386
		c4.93-0.875,8.863-5.357,8.871-10.111c0.01-4.941-3.598-9.116-6.697-13.089C948.412,580.431,943.698,571.846,938.524,563.554z
		 M775.551,953.522c0,0,24.252-7.79,21.232-38.604c0,0-6.963,22.818-24.128,23.024c-17.165,0.207-29.091,1.241-29.091,1.241
		C760.661,943.043,775.551,953.522,775.551,953.522z M638.23,1028.248c-5.65,2.009-14.2-0.732-21.849-4.305
		c-6.944-3.244-13.147-7.172-15.731-8.883c0,0-0.268-0.691-0.65-0.434c-0.38-0.257-0.65,0.434-0.65,0.434
		c-2.6,1.721-8.863,5.688-15.859,8.943c-7.616,3.544-16.103,6.243-21.722,4.245c-12.409-4.412-43.016,18.199-45.226,18.199
		c-2.21,0,45.226,9.927,55.153,12.408c6.838,1.709,17.948,0.155,24.217-0.98c1.867-0.338,3.324-0.64,4.087-0.806
		c0.34,0.074,0.842,0.179,1.426,0.298c5.142,1.043,18.91,3.48,26.877,1.489c9.927-2.482,57.363-12.408,55.153-12.408
		C681.246,1046.447,650.639,1023.837,638.23,1028.248z M720.54,909.816c19.561-2.275,19.027-27.092,19.027-27.092
		c-2.689,17.992-22.542,14.063-22.542,14.063s-10.134,17.579-31.849,24.197C708.752,924.5,720.54,909.816,720.54,909.816z
		 M725.642,999.571c-19.86-6.755-39.045-11.652-53.462-14.895l0.002-0.001c0,0-16.86-7.749-30.232-9.535
		c-0.176-0.219-0.36-0.435-0.509-0.661c-3.624-5.515-9.208-24.541-9.208-24.541s-4.136,29.987,3.309,30.608
		c2.84,0.237,5.656,0.226,8.446,0.3c9.208,0.631,21.274,6.123,21.846,6.386c21.863,10.556,52.185,27.776,66.149,26.955
		c18.75-1.103,42.74-21.232,42.189-39.707C774.172,974.478,755.973,1006.189,725.642,999.571z M671.527,829.782
		c-9.513-0.62-17.579,10.547-17.579,10.547l-26.885,10.961h26.678c0,0,7.859-11.581,15.924-12.408
		c8.065-0.827,32.882-1.861,32.882-1.861v-34.951l-15.51,27.712C687.037,829.782,681.04,830.402,671.527,829.782z M749.788,808.936
		c6.744,17.927,13.356,35.512,15.009,39.941c0.405-0.405,0.881-0.756,1.4-1.066c3.454-2.065,9.025-2.122,11.424-1.322
		c-32.055-49.22-44.349-81.438-44.349-81.438S741.627,787.244,749.788,808.936z M722.333,697.356
		c0.551,2.206,4.963-26.471,9.927-41.913s-9.927-55.428-9.927-55.428S721.781,695.15,722.333,697.356z M790.027,671.221
		c0.381-1.815,20.267-35.219,45.291-41.423c0,0-29.78-1.861-40.948,3.102c-11.167,4.963-23.576,15.924-23.576,15.924
		C772.035,648.825,791.682,661.026,790.027,671.221z M1080.8,158c0,0,8.272,29.78,8.272,59.337c0,29.556-44.119,95.08-44.119,95.08
		l-21.784,39.431l24.817-26.666l11.305-4.533C1131.385,217.095,1092.932,167.927,1080.8,158z M1014.207,406.032
		c0,0,4.792,15.717,3.43,14.063c-1.362-1.655-31.727-20.887-31.727-20.887c0.585,0.827,36.983,45.291,36.983,45.291
		s17.992-35.984,21.508-51.495c3.516-15.511,4.964-56.045,4.964-56.045S1026.202,397.346,1014.207,406.032z M870.666,768.497
		c-49.618,1.655-83.258-44.912-83.258-44.912l43.016,119.363c0,0,105.232-38.536,115.21-119.363
		C945.634,723.585,920.284,766.843,870.666,768.497z M427.344,937.942c-11.398-0.137-18.276-10.225-21.625-17.001
		c-1.694-3.428-2.502-6.023-2.502-6.023c-0.093,0.95-0.085,1.812-0.128,2.719c-1.344,28.502,21.36,35.885,21.36,35.885
		s14.89-10.478,31.987-14.339C456.436,939.183,444.51,938.149,427.344,937.942z M528.473,829.782c-9.513,0.62-15.51,0-15.51,0
		l-15.51-27.712v34.951c0,0,24.817,1.034,32.882,1.861c8.065,0.827,15.924,12.408,15.924,12.408h26.678l-26.885-10.961
		C546.052,840.329,537.987,829.161,528.473,829.782z M479.46,909.816c0,0,11.788,14.683,35.364,11.168
		c-21.715-6.618-31.849-24.197-31.849-24.197s-19.854,3.929-22.542-14.063C460.433,882.724,459.899,907.541,479.46,909.816z
		 M426.103,974.934c-0.176-0.287-0.275-0.456-0.275-0.456c-0.002,0.069,0.012,0.138,0.011,0.207
		c-0.368,18.418,23.497,38.402,42.178,39.5c13.965,0.821,44.289-16.401,66.153-26.956c0.603-0.277,12.647-5.754,21.843-6.384
		c2.79-0.074,5.606-0.063,8.446-0.3c7.445-0.62,3.309-30.608,3.309-30.608s-5.584,19.026-9.208,24.541
		c-0.149,0.226-0.333,0.443-0.509,0.661c-13.372,1.786-30.232,9.535-30.232,9.535l0.002,0.001
		c-14.417,3.243-33.602,8.14-53.462,14.895C446.15,1005.726,428.444,978.742,426.103,974.934z M467.741,655.443
		c4.963,15.442,9.376,44.119,9.927,41.913c0.552-2.206,0-97.342,0-97.342S462.777,640.001,467.741,655.443z M422.38,846.489
		c1.945-0.649,5.965-0.712,9.264,0.379c1.38,0.457,2.645,1.094,3.56,2.009c3.654-9.789,31.525-83.826,31.525-83.826
		s-2.737,7.169-8.987,19.901C450.737,799.22,439.32,820.477,422.38,846.489z M409.973,671.221
		c-1.654-10.195,17.992-22.397,19.233-22.397c0,0-12.409-10.961-23.576-15.924c-11.168-4.963-40.948-3.102-40.948-3.102
		C389.705,636.002,409.592,669.406,409.973,671.221z M329.334,768.497c-49.617-1.654-74.968-44.912-74.968-44.912
		c9.978,80.827,115.21,119.363,115.21,119.363l43.016-119.363C412.593,723.585,378.951,770.152,329.334,768.497z M176.831,351.848
		l-21.784-39.431l-9.375-6.894l-4.963,15.126l11.306,4.533L176.831,351.848z M185.793,406.032
		c-11.995-8.686-35.157-69.074-35.157-69.074s1.448,40.535,4.963,56.045c3.516,15.511,21.508,51.495,21.508,51.495
		s36.398-44.464,36.983-45.291c0,0-30.365,19.233-31.727,20.887C181.001,421.75,185.793,406.032,185.793,406.032z M283.402,286.773
		c-4.805,1.145-10.982,2.609-17.265,4.078c-13.416,3.138-27.23,6.279-28.758,6.279c-3.055,0,9.773-33.587,9.773-33.587
		l-34.207,2.895c0,0,7.941-23.163-17.714-27.796s-33.596-68.911-50.7-69.49c0,0-0.525,0.743-1.306,2.313
		c-2.315,4.652-6.888,16.611-6.788,38.368c0.094,20.528,25.197,70.793,55.434,88.166c23.287,13.38,28.408,51.242,29.534,67.951
		c0.336,4.987,0.321,8.111,0.321,8.111c4.175-27.704,19.239-48.713,34.403-63.401c8.547-8.278,17.112-14.55,23.79-18.857
		c7.478-4.823,12.588-7.207,12.588-7.207S288.833,285.479,283.402,286.773z"/>
</g>
</svg>
