<svg id="NG-TikTok-Negre" xmlns="http://www.w3.org/2000/svg" xmlns:xlink="http://www.w3.org/1999/xlink" width="20.524" height="22.261" viewBox="0 0 20.524 22.261">
  <defs>
    <clipPath id="clip-path">
      <rect id="Rectángulo_1" data-name="Rectángulo 1" width="20.524" height="22.261" fill="#2e2e2e"/>
    </clipPath>
  </defs>
  <g id="Grupo_1" data-name="Grupo 1" clip-path="url(#clip-path)">
    <path id="Trazado_2" data-name="Trazado 2" d="M14.768,5.972v8.9a7.415,7.415,0,0,1-7.384,7.384,7.384,7.384,0,0,1,0-14.768h1.3V11.4H7.276a3.476,3.476,0,1,0,0,6.95,3.346,3.346,0,0,0,3.475-3.475V0H14.66l.217.326a10.488,10.488,0,0,0,2.389,2.932,5.736,5.736,0,0,0,2.606,1.194l.652.109-.652,3.8-.652-.109a6.284,6.284,0,0,1-2.28-.76,6.058,6.058,0,0,1-2.172-1.52" transform="translate(0)" fill="#2e2e2e"/>
  </g>
</svg>
